<?xml version="1.0" encoding="UTF-8"?>
<svg version="1.1" xmlns="http://www.w3.org/2000/svg" width="500" height="500">
<path d="M0 0 C0.66 0 1.32 0 2 0 C26.45011897 42.87200324 49.23699022 91.29850542 35.64160156 141.78027344 C26.2203924 174.3745024 4.78573091 202.37119153 -25.03842163 218.85121155 C-33.60508508 223.48709956 -42.43138175 227.31026409 -51.4375 231 C-59.94422729 234.49413749 -68.3681009 238.0669981 -76.60546875 242.1640625 C-77.24697372 242.48181641 -77.8884787 242.79957031 -78.54942322 243.12695312 C-94.89844529 251.39949691 -110.48239825 263.97196284 -116.3828125 281.94140625 C-117.38149931 285.26483705 -118.22887428 288.6161786 -119 292 C-119.33 292 -119.66 292 -120 292 C-121.70446468 250.14592277 -102.73558174 213.12063764 -77.43652344 180.83349609 C-76.02240358 179.02859465 -74.62322158 177.21296353 -73.2265625 175.39453125 C-66.76066417 167.02017052 -59.93309045 158.98866302 -53 151 C-37.60323746 133.20307879 -22.44345783 115.25062753 -9.3125 95.6875 C-8.89000977 95.0589209 -8.46751953 94.4303418 -8.03222656 93.78271484 C-6.32882686 91.20200025 -4.98282323 88.9484697 -4 86 C-9.59499094 91.50393322 -15.09563064 96.99703449 -20.19140625 102.97265625 C-23.17528004 106.31743054 -26.40619732 109.41335157 -29.59375 112.5625 C-31.65449345 114.65000635 -33.59515626 116.77169223 -35.5 119 C-38.98332542 123.0748335 -42.77818708 126.79292992 -46.58984375 130.55859375 C-49.26854532 133.27202727 -51.74608118 136.10777023 -54.22265625 139.00390625 C-56.23268777 141.26132626 -58.34832953 143.37735713 -60.5 145.5 C-63.89609881 148.85594224 -67.09800568 152.3007681 -70.203125 155.92578125 C-72.1746243 158.20157718 -74.21134395 160.40922667 -76.25 162.625 C-93.08523591 181.31811424 -107.22584406 202.2691588 -118 225 C-125.60717566 217.39282434 -124.78519896 198.03194922 -125 188 C-124.52552363 155.18281858 -118.75776398 125.79928643 -94.953125 101.94921875 C-83.70275546 91.39671048 -69.86822077 84.13627225 -56.57226562 76.54223633 C-32.99143976 63.02167118 -9.68768053 47.65405262 -1 20.5 C0.59839267 13.77046144 0.25024605 6.86786382 0 0 Z " fill="#016638" transform="translate(359,9)"/>
<path d="M0 0 C0.33 0 0.66 0 1 0 C1.02578125 0.88300781 1.0515625 1.76601563 1.078125 2.67578125 C1.80512419 18.05842314 6.77128964 30.38174543 18.0625 41.125 C26.01334882 47.96144413 34.82720855 53.18408207 43.87890625 58.39453125 C44.92731689 58.99942383 45.97572754 59.60431641 47.0559082 60.22753906 C49.13117665 61.41975168 51.21150421 62.60321614 53.29760742 63.77636719 C72.02511751 74.47956206 85.96017639 87.97883455 92 109 C96.95321653 129.43634794 97.81919667 150.63281167 92 171 C91.34 171 90.68 171 90 171 C89.71390869 170.42668945 89.42781738 169.85337891 89.13305664 169.26269531 C83.52830719 158.10466747 78.00052739 147.6409233 70 138 C69.28328125 137.09507812 68.5665625 136.19015625 67.828125 135.2578125 C62.62584871 128.74574325 57.06308418 122.59679339 51.38964844 116.49853516 C49.1616086 114.09591595 46.95804455 111.67098653 44.75 109.25 C39.19758818 103.18325318 33.57138339 97.18633361 27.9375 91.1953125 C25.21905209 88.30354989 22.51223411 85.401427 19.8125 82.4921875 C19.13219727 81.7609668 18.45189453 81.02974609 17.75097656 80.27636719 C16.44326382 78.87036857 15.13782399 77.46225157 13.83496094 76.05175781 C13.24489258 75.41850586 12.65482422 74.78525391 12.046875 74.1328125 C11.52963867 73.57480957 11.01240234 73.01680664 10.47949219 72.44189453 C8.85613799 70.77157789 8.85613799 70.77157789 6 69 C14.167073 81.77714 23.54819205 93.40182655 33.3828125 104.91796875 C36.55231571 108.63501579 39.62840064 112.42631299 42.70703125 116.21875 C44.71463313 118.65386506 46.76470206 121.04504056 48.83251953 123.42895508 C60.44857695 136.89730273 70.94798544 151.11042151 79 167 C79.32581055 167.63921387 79.65162109 168.27842773 79.98730469 168.93701172 C88.71335129 186.27094884 92.43531786 202.7250926 92 222 C90.49145942 219.10306808 89.2765128 216.17983974 88.125 213.125 C86.48804344 209.01455394 84.68264156 205.550555 82 202 C81.236875 200.9275 80.47375 199.855 79.6875 198.75 C69.57748687 187.32896273 54.16975164 181.53110592 40.39404297 175.94287109 C10.76260653 163.91640691 -10.29779682 146.90567253 -23 117 C-33.69540539 89.497529 -29.12094443 60.20350657 -17.61669922 33.82861328 C-6.5718284 9.50681973 -6.5718284 9.50681973 0 0 Z " fill="#86BC42" transform="translate(130,26)"/>
<path d="M0 0 C5.47536735 0.07176745 10.4350439 0.21742493 15.06469727 3.44799805 C19.57071042 8.52470444 22.32718046 14.51716186 25.03881836 20.69067383 C26.91400502 24.77106333 29.32642236 28.36263714 31.85668945 32.05834961 C32.75013222 33.42676232 33.63938957 34.79791591 34.5246582 36.17163086 C34.9788916 36.87368652 35.433125 37.57574219 35.90112305 38.29907227 C39.73295841 44.24670804 43.52005665 50.22304734 47.3137207 56.19506836 C53.32279657 65.65283125 59.34084991 75.10488748 65.35668945 84.55834961 C65.68668945 57.16834961 66.01668945 29.77834961 66.35668945 1.55834961 C76.91668945 1.55834961 87.47668945 1.55834961 98.35668945 1.55834961 C98.35668945 47.09834961 98.35668945 92.63834961 98.35668945 139.55834961 C87.46668945 139.55834961 76.57668945 139.55834961 65.35668945 139.55834961 C58.04974017 131.83386036 58.04974017 131.83386036 56.64575195 127.90600586 C54.09625941 121.60315938 50.41373453 116.20733383 46.66918945 110.55834961 C45.2954528 108.41895053 43.92570696 106.27698401 42.55981445 104.13256836 C38.34788321 97.54429776 34.13394513 90.9573136 29.91918945 84.37084961 C29.29375244 83.3930957 28.66831543 82.4153418 28.02392578 81.40795898 C23.14586566 73.78426074 18.25099125 66.17170795 13.35668945 58.55834961 C13.02668945 85.28834961 12.69668945 112.01834961 12.35668945 139.55834961 C1.46668945 139.55834961 -9.42331055 139.55834961 -20.64331055 139.55834961 C-20.66585696 121.71303784 -20.68428936 103.86773816 -20.69512272 86.02241611 C-20.70028583 77.73710687 -20.70732882 69.45180708 -20.71875 61.16650391 C-20.72869637 53.94765353 -20.73516386 46.72881 -20.73739904 39.50995296 C-20.73870623 35.68526706 -20.74179258 31.86060074 -20.7490406 28.0359211 C-20.75580009 24.44009174 -20.75792766 20.84429015 -20.75641823 17.24845505 C-20.75682691 15.29128924 -20.76222248 13.33412649 -20.76773071 11.37696838 C-20.76635605 10.22285461 -20.76498138 9.06874084 -20.76356506 7.87965393 C-20.76448686 6.87029061 -20.76540865 5.8609273 -20.76635838 4.82097721 C-20.42727334 -1.41418499 -5.17947383 0.08873901 0 0 Z " fill="#3E6506" transform="translate(162.643310546875,306.441650390625)"/>
<path d="M0 0 C65.85358891 0 65.85358891 0 78.86328125 12.51953125 C85.55505137 20.28785671 86.40751087 30.16769003 85.81640625 40.078125 C84.72774846 48.83228039 81.45719842 56.34515441 74.625 62.125 C73.75875 62.74375 72.8925 63.3625 72 64 C74.08953508 65.06638342 76.17798747 66.07691921 78.33203125 67.0078125 C86.71083838 70.78157445 91.78828622 75.60655477 95.375 84.125 C99.21798545 94.91492069 98.81384294 105.22049674 95 116 C89.91887819 126.20973074 82.25726327 131.92831782 71.83203125 136.0546875 C49.11155609 143.63862542 23.95278911 138 0 138 C0 92.46 0 46.92 0 0 Z M32 25 C32 34.57 32 44.14 32 54 C39.98273296 54 45.36381781 53.98353411 51.4375 49 C54.43201802 45.16701693 54.39548816 41.19241248 54.34765625 36.51171875 C53.76905363 32.33147733 52.13413435 30.7858972 49 28 C43.03103721 25.32917961 43.03103721 25.32917961 32 25 Z M32 82 C32 92.23 32 102.46 32 113 C46.70310321 114.18954298 46.70310321 114.18954298 60 109 C63.79334206 104.78715893 64.25774922 100.53745099 64 95 C62.77814674 90.25823835 60.71315918 87.09584356 56.5 84.5625 C52.44888569 82.75396683 49.30755644 81.86888215 44.890625 81.90234375 C43.8701709 81.90609009 43.8701709 81.90609009 42.82910156 81.90991211 C41.97799805 81.91901611 41.12689453 81.92812012 40.25 81.9375 C37.5275 81.958125 34.805 81.97875 32 82 Z " fill="#3E6506" transform="translate(266,308)"/>
<path d="M0 0 C4.85942869 9.71885738 4.23943317 20.39843119 4 31 C2.49145942 28.10306808 1.2765128 25.17983974 0.125 22.125 C-1.51016953 17.97277176 -3.38786877 14.60293962 -6 11 C-6.33 10.34 -6.66 9.68 -7 9 C-5.35 9 -3.7 9 -2 9 C-2.33 9.66 -2.66 10.32 -3 11 C-1.68 11.33 -0.36 11.66 1 12 C0.67 8.04 0.34 4.08 0 0 Z " fill="#85B34A" transform="translate(218,217)"/>
<path d="M0 0 C0 0.66 0 1.32 0 2 C-7.55154605 4.42488534 -14.91486103 4.25629729 -22.78125 4.1953125 C-24.20470988 4.19157606 -25.62817236 4.18873207 -27.05163574 4.18673706 C-30.77359284 4.17915025 -34.49539047 4.15954519 -38.21728516 4.1373291 C-42.02504317 4.11676314 -45.83282729 4.1077125 -49.640625 4.09765625 C-57.0938222 4.07629389 -64.54688864 4.04221885 -72 4 C-70.68 3.01 -69.36 2.02 -68 1 C-67.67 1.33 -67.34 1.66 -67 2 C-65.2987167 2.10407949 -63.59312256 2.13853427 -61.88867188 2.14526367 C-60.79663452 2.15164352 -59.70459717 2.15802338 -58.57946777 2.16459656 C-56.79216248 2.16626579 -56.79216248 2.16626579 -54.96875 2.16796875 C-53.13842224 2.17296135 -53.13842224 2.17296135 -51.27111816 2.17805481 C-48.67847064 2.18313198 -46.08581655 2.18546289 -43.49316406 2.18530273 C-39.54481 2.18747534 -35.59674154 2.20558438 -31.6484375 2.22460938 C-29.13020929 2.22754598 -26.61197975 2.22952899 -24.09375 2.23046875 C-22.91840698 2.23765427 -21.74306396 2.24483978 -20.53210449 2.25224304 C-13.54728236 2.23300865 -6.76425247 0 0 0 Z " fill="#425F0F" transform="translate(338,442)"/>
<path d="M0 0 C3.22826756 1.20225137 5.94587769 2.50698745 8.75 4.5 C15.91196461 9.40478667 23.49850402 13.64207007 31 18 C29 19 29 19 25.875 18.0625 C24.92625 17.711875 23.9775 17.36125 23 17 C23 16.34 23 15.68 23 15 C22.071875 14.71125 21.14375 14.4225 20.1875 14.125 C17 13 17 13 14 11 C13.01 10.67 12.02 10.34 11 10 C11 9.34 11 8.68 11 8 C10.443125 7.87625 9.88625 7.7525 9.3125 7.625 C6.68771772 6.91559938 4.41552105 6.27132687 2 5 C0.6875 2.375 0.6875 2.375 0 0 Z " fill="#8CB550" transform="translate(154,73)"/>
<path d="M0 0 C0.33 0 0.66 0 1 0 C1 4.62 1 9.24 1 14 C-0.65 13.67 -2.3 13.34 -4 13 C-4.33 13.99 -4.66 14.98 -5 16 C-5.99 16 -6.98 16 -8 16 C-6.44584521 10.0942118 -3.40465533 5.02261107 0 0 Z " fill="#8DB94C" transform="translate(130,26)"/>
<path d="M0 0 C0.33 0.66 0.66 1.32 1 2 C0.67 2.66 0.34 3.32 0 4 C-0.66 4 -1.32 4 -2 4 C-3.47047336 7.91063224 -3.47047336 7.91063224 -4 12 C-4.99 12.33 -5.98 12.66 -7 13 C-8.20882096 15.00016466 -8.20882096 15.00016466 -9 17 C-9.66 17 -10.32 17 -11 17 C-12.67745682 17.63903117 -14.34561387 18.30341637 -16 19 C-11.19231392 12.17933967 -5.67375075 6.0998427 0 0 Z " fill="#0B613C" transform="translate(324,139)"/>
<path d="M0 0 C0.66 0 1.32 0 2 0 C3.76171875 2.5546875 3.76171875 2.5546875 5.6875 5.875 C6.33074219 6.96554688 6.97398437 8.05609375 7.63671875 9.1796875 C8.08660156 10.11039063 8.53648437 11.04109375 9 12 C8.67 12.66 8.34 13.32 8 14 C7.34 12.68 6.68 11.36 6 10 C5.01 10.33 4.02 10.66 3 11 C2.87625 12.134375 2.7525 13.26875 2.625 14.4375 C2.41875 15.613125 2.2125 16.78875 2 18 C1.34 18.33 0.68 18.66 0 19 C0 12.73 0 6.46 0 0 Z " fill="#0E5E3B" transform="translate(359,9)"/>
<path d="M0 0 C1.98 0.99 1.98 0.99 4 2 C4 2.66 4 3.32 4 4 C19.345 3.505 19.345 3.505 35 3 C35 3.66 35 4.32 35 5 C24.11 5 13.22 5 2 5 C1.34 3.35 0.68 1.7 0 0 Z " fill="#425F11" transform="translate(226,441)"/>
<path d="M0 0 C3.97007156 0.27698174 5.72389212 0.76684223 8.8125 3.375 C12.00337143 7.20404572 12.19811778 10.3464219 12.5625 15.1875 C12.64628906 16.27417969 12.73007812 17.36085938 12.81640625 18.48046875 C12.87699219 19.31191406 12.93757813 20.14335937 13 21 C12.01 21.33 11.02 21.66 10 22 C10.04640625 21.3709375 10.0928125 20.741875 10.140625 20.09375 C10.40069062 13.92647966 9.93100914 8.96736609 6 4 C2.93237162 1.96175327 2.93237162 1.96175327 0 1 C0 0.67 0 0.34 0 0 Z " fill="#3E5912" transform="translate(319,391)"/>
<path d="M0 0 C-0.33 1.98 -0.66 3.96 -1 6 C-2.5159375 6.185625 -2.5159375 6.185625 -4.0625 6.375 C-7.87937612 6.98085335 -11.31500112 7.87193912 -15 9 C-12.59888822 6.36115438 -9.99444972 4.63586471 -6.9375 2.8125 C-5.62072266 2.01779297 -5.62072266 2.01779297 -4.27734375 1.20703125 C-2 0 -2 0 0 0 Z " fill="#0C603C" transform="translate(300,88)"/>
<path d="M0 0 C2.6911261 2.6911261 3.27093337 4.22210926 4 8 C3.28064474 11.76238329 2.20270496 15.36602049 1 19 C0.67 19 0.34 19 0 19 C0 12.73 0 6.46 0 0 Z " fill="#11643E" transform="translate(239,282)"/>
<path d="M0 0 C0.99 0.33 1.98 0.66 3 1 C3 6.28 3 11.56 3 17 C1.46264017 13.92528034 0.55332108 11.75292863 -0.1875 8.5 C-0.36667969 7.7471875 -0.54585937 6.994375 -0.73046875 6.21875 C-1.01801942 3.85166621 -0.72248395 2.25455985 0 0 Z " fill="#7FAC47" transform="translate(219,231)"/>
<path d="M0 0 C0.33 0 0.66 0 1 0 C0.85769192 1.41702513 0.71099254 2.8336096 0.5625 4.25 C0.48128906 5.03890625 0.40007812 5.8278125 0.31640625 6.640625 C0.02365007 8.82364639 -0.42064419 10.8773182 -1 13 C-1.66 13 -2.32 13 -3 13 C-4.65 9.37 -6.3 5.74 -8 2 C-6.68 2.33 -5.36 2.66 -4 3 C-4 4.65 -4 6.3 -4 8 C-3.01 8 -2.02 8 -1 8 C-1.33 7.01 -1.66 6.02 -2 5 C-1.0625 2.3125 -1.0625 2.3125 0 0 Z " fill="#87B34C" transform="translate(223,184)"/>
<path d="M0 0 C0.495 0.268125 0.99 0.53625 1.5 0.8125 C4.9236946 2.43875493 8.44132285 3.69515171 12 5 C12 5.66 12 6.32 12 7 C12.66 7.33 13.32 7.66 14 8 C9.94180817 7.34496718 6.46028718 6.05440879 2.6875 4.4375 C1.61886719 3.98246094 0.55023438 3.52742187 -0.55078125 3.05859375 C-1.35902344 2.70925781 -2.16726562 2.35992187 -3 2 C-2.01 1.34 -1.02 0.68 0 0 Z " fill="#8DB453" transform="translate(164,196)"/>
<path d="M0 0 C2.97 0.495 2.97 0.495 6 1 C6.33 3.64 6.66 6.28 7 9 C7.66 9 8.32 9 9 9 C8.67 10.32 8.34 11.64 8 13 C6.66388095 11.0226631 5.33100742 9.04327287 4 7.0625 C3.6184375 6.49853516 3.236875 5.93457031 2.84375 5.35351562 C0 1.11328125 0 1.11328125 0 0 Z " fill="#3D5E10" transform="translate(190,386)"/>
<path d="M0 0 C3.2626876 3.08632611 6.02235218 5.93483504 8 10 C7.67 10.66 7.34 11.32 7 12 C6.34 11.67 5.68 11.34 5 11 C5 10.34 5 9.68 5 9 C3.68 9 2.36 9 1 9 C0.67 6.03 0.34 3.06 0 0 Z " fill="#88B44D" transform="translate(193,169)"/>
<path d="M0 0 C2.71232939 4.06849409 2.30699887 6.16476784 2 11 C1.34 11.66 0.68 12.32 0 13 C-2 5.375 -2 5.375 -2 2 C-1.34 1.34 -0.68 0.68 0 0 Z " fill="#416111" transform="translate(173,363)"/>
<path d="M0 0 C1.17790906 3.53372717 0.82375082 5.40545095 0 9 C-0.99 10.485 -0.99 10.485 -2 12 C-2.66 12 -3.32 12 -4 12 C-4.33 12.99 -4.66 13.98 -5 15 C-5.33 14.34 -5.66 13.68 -6 13 C-5.10333658 10.75689987 -4.10853317 8.55245679 -3.0625 6.375 C-2.49660156 5.18648437 -1.93070312 3.99796875 -1.34765625 2.7734375 C-0.90292969 1.85820313 -0.45820312 0.94296875 0 0 Z " fill="#8DB750" transform="translate(118,48)"/>
<path d="M0 0 C1.5625 1.5625 1.5625 1.5625 3 4 C2.6875 7.75 2.6875 7.75 2 11 C-2.42857143 5.85714286 -2.42857143 5.85714286 -3 2 C-2.34 2 -1.68 2 -1 2 C-0.67 1.34 -0.34 0.68 0 0 Z " fill="#8AB74D" transform="translate(213,174)"/>
<path d="M0 0 C0.33 0 0.66 0 1 0 C1.24091535 7.2274605 0.34495828 13.90294338 -1 21 C-1.33 21 -1.66 21 -2 21 C-2.05404449 18.24973583 -2.09369306 15.50053797 -2.125 12.75 C-2.14175781 11.97269531 -2.15851563 11.19539062 -2.17578125 10.39453125 C-2.23662606 3.27568856 -2.23662606 3.27568856 0 0 Z " fill="#0D5D3C" transform="translate(397,124)"/>
<path d="M0 0 C1.32 0.66 2.64 1.32 4 2 C0.7 5.63 -2.6 9.26 -6 13 C-6 11.33333333 -6 9.66666667 -6 8 C-5.38125 7.566875 -4.7625 7.13375 -4.125 6.6875 C-1.60686633 4.68780562 -0.97814895 3.01595927 0 0 Z " fill="#085F3B" transform="translate(329,116)"/>
<path d="M0 0 C0.99 0.33 1.98 0.66 3 1 C3 6.94 3 12.88 3 19 C-0.11591456 12.76817087 -0.11968408 6.82199235 0 0 Z " fill="#0E5F3B" transform="translate(235,205)"/>
<path d="M0 0 C0.99 0.495 0.99 0.495 2 1 C2 1.66 2 2.32 2 3 C2.66 3.33 3.32 3.66 4 4 C4.75 6.875 4.75 6.875 5 10 C4.01 11.485 4.01 11.485 3 13 C2.49487756 11.39743892 1.99608373 9.79288208 1.5 8.1875 C1.2215625 7.29417969 0.943125 6.40085938 0.65625 5.48046875 C0 3 0 3 0 0 Z M4 2 C7 3 7 3 7 3 Z " fill="#8BB64D" transform="translate(103,127)"/>
<path d="M0 0 C1.875 0.1875 1.875 0.1875 4 1 C5.125 3.5 5.125 3.5 6 6 C6.66 6.33 7.32 6.66 8 7 C8 8.65 8 10.3 8 12 C4.78119883 8.2064129 2.3836813 4.34170523 0 0 Z " fill="#3F5A13" transform="translate(217,428)"/>
<path d="M0 0 C2.25245881 2.68841859 3.88213958 4.64641875 5 8 C4.01 8.33 3.02 8.66 2 9 C2 8.34 2 7.68 2 7 C1.34 7 0.68 7 0 7 C0 6.34 0 5.68 0 5 C-0.66 4.67 -1.32 4.34 -2 4 C-1.34 2.68 -0.68 1.36 0 0 Z " fill="#3C5D0E" transform="translate(196,342)"/>
<path d="M0 0 C0.33 0.66 0.66 1.32 1 2 C-0.25842768 5.77528304 -1.62493429 6.10667045 -5 8 C-5.66 8.66 -6.32 9.32 -7 10 C-7.99 9.67 -8.98 9.34 -10 9 C-6.7 6.03 -3.4 3.06 0 0 Z " fill="#0D5D3A" transform="translate(340,59)"/>
<path d="M0 0 C0 3.31246505 -0.55697235 4.36108136 -2.25 7.125 C-2.87648438 8.18074219 -2.87648438 8.18074219 -3.515625 9.2578125 C-5.26426684 11.31016581 -6.37417256 11.629691 -9 12 C-6.2520787 7.72545575 -3.30749011 3.85873847 0 0 Z " fill="#0D5E3C" transform="translate(336,124)"/>
<path d="M0 0 C3.99455527 0.61454696 6.74466336 2.70646737 10 5 C8 6 8 6 5 5.3125 C2 4 2 4 0.625 1.875 C0.41875 1.25625 0.2125 0.6375 0 0 Z " fill="#3A560C" transform="translate(344,376)"/>
<path d="M0 0 C2.52631142 3.12781414 4.42373366 6.29577411 6 10 C5.67 10.99 5.34 11.98 5 13 C1.42988974 9.267612 0.89086558 4.9050011 0 0 Z " fill="#0B5B3B" transform="translate(377,41)"/>
<path d="M0 0 C0.99 0.33 1.98 0.66 3 1 C3 2.32 3 3.64 3 5 C3.66 5 4.32 5 5 5 C5.33 6.98 5.66 8.96 6 11 C2.90407165 7.4912812 1.25805377 4.50802601 0 0 Z " fill="#8BB154" transform="translate(110,148)"/>
<path d="M0 0 C1.32 0 2.64 0 4 0 C2.60667426 3.36720387 1.0210714 4.9859524 -2 7 C-2 5.68 -2 4.36 -2 3 C-1.34 3 -0.68 3 0 3 C0 2.01 0 1.02 0 0 Z " fill="#0C613C" transform="translate(300,147)"/>
<path d="M0 0 C3.24299151 2.38957269 5.50902342 4.2047869 7 8 C6.01 8 5.02 8 4 8 C4 7.01 4 6.02 4 5 C2.68 4.67 1.36 4.34 0 4 C0 2.68 0 1.36 0 0 Z " fill="#85B04F" transform="translate(172,143)"/>
<path d="M0 0 C0.33 0 0.66 0 1 0 C1 4.29 1 8.58 1 13 C0.67 13 0.34 13 0 13 C-0.12375 11.865625 -0.2475 10.73125 -0.375 9.5625 C-0.58125 8.386875 -0.7875 7.21125 -1 6 C-1.66 5.67 -2.32 5.34 -3 5 C-2.03114628 3.31503702 -1.03013277 1.64821244 0 0 Z " fill="#94AF6A" transform="translate(130,26)"/>
<path d="M0 0 C0.99 0.33 1.98 0.66 3 1 C2.34 3.64 1.68 6.28 1 9 C0.34 8.34 -0.32 7.68 -1 7 C-0.625 3.375 -0.625 3.375 0 0 Z " fill="#7DB23D" transform="translate(219,231)"/>
<path d="M0 0 C0.99 0 1.98 0 3 0 C3 0.66 3 1.32 3 2 C3.66 2 4.32 2 5 2 C5.33 3.98 5.66 5.96 6 8 C3.33264727 5.51047079 1.44253657 3.36591866 0 0 Z " fill="#425B16" transform="translate(179,369)"/>
<path d="M0 0 C2.79872437 2.52788007 4.45773019 4.20411134 5 8 C2.525 7.01 2.525 7.01 0 6 C0 4.02 0 2.04 0 0 Z " fill="#445E15" transform="translate(202,352)"/>
<path d="M0 0 C5.57142857 5.14285714 5.57142857 5.14285714 6 9 C1.2 5.67692308 1.2 5.67692308 0.1875 2.25 C0.125625 1.5075 0.06375 0.765 0 0 Z " fill="#425E13" transform="translate(176,312)"/>
<path d="M0 0 C4 1 4 1 5.3125 2.875 C6 5 6 5 5 8 C2.525 4.04 2.525 4.04 0 0 Z " fill="#8AB24F" transform="translate(116,160)"/>
<path d="M0 0 C2.50298434 2.93828597 3.46930939 5.17902761 4 9 C2 7.875 2 7.875 0 6 C-0.25 2.8125 -0.25 2.8125 0 0 Z " fill="#8AB251" transform="translate(217,124)"/>
<path d="M0 0 C1.70884005 1.62339805 3.37446717 3.29319053 5 5 C5 5.66 5 6.32 5 7 C3.68 6.67 2.36 6.34 1 6 C0.67 4.02 0.34 2.04 0 0 Z " fill="#88B34B" transform="translate(137,99)"/>
</svg>
